<svg class="svg-icon" style="width: 1em; height: 1em;vertical-align: middle;fill: currentColor;overflow: hidden;" viewBox="0 0 1024 1024" version="1.1" xmlns="http://www.w3.org/2000/svg"><path d="M853.333333 34.133333H170.666667c-10.24 0-17.066667-6.826667-17.066667-17.066666S160.426667 0 170.666667 0h682.666666c10.24 0 17.066667 6.826667 17.066667 17.066667s-6.826667 17.066667-17.066667 17.066666z" fill="" /><path d="M989.866667 819.2H34.133333c-10.24 0-17.066667-6.826667-17.066666-17.066667v-341.333333c0-10.24 6.826667-17.066667 17.066666-17.066667h153.6V17.066667c0-10.24 6.826667-17.066667 17.066667-17.066667s17.066667 6.826667 17.066667 17.066667v443.733333c0 10.24-6.826667 17.066667-17.066667 17.066667H51.2v307.2h921.6v-307.2H819.2c-10.24 0-17.066667-6.826667-17.066667-17.066667V17.066667c0-10.24 6.826667-17.066667 17.066667-17.066667s17.066667 6.826667 17.066667 17.066667V443.733333H989.866667c10.24 0 17.066667 6.826667 17.066666 17.066667v341.333333c0 10.24-6.826667 17.066667-17.066666 17.066667z" fill="" /><path d="M716.8 1024H307.2c-6.826667 0-10.24-3.413333-13.653333-6.826667-3.413333-3.413333-3.413333-10.24-3.413334-13.653333l68.266667-218.453333v-218.453334c0-10.24 6.826667-17.066667 17.066667-17.066666h273.066666c10.24 0 17.066667 6.826667 17.066667 17.066666V785.066667l68.266667 218.453333c0 6.826667 0 10.24-3.413334 13.653333-3.413333 3.413333-6.826667 6.826667-13.653333 6.826667zM331.093333 989.866667h361.813334l-61.44-201.386667V580.266667h-238.933334v208.213333L331.093333 989.866667z" fill="" /><path d="M512 802.133333c-10.24 0-17.066667-6.826667-17.066667-17.066666v-215.04c0-10.24 6.826667-17.066667 17.066667-17.066667s17.066667 6.826667 17.066667 17.066667V785.066667c0 10.24-6.826667 17.066667-17.066667 17.066666zM443.733333 477.866667H307.2c-10.24 0-17.066667-6.826667-17.066667-17.066667v-136.533333c0-10.24 6.826667-17.066667 17.066667-17.066667h136.533333c10.24 0 17.066667 6.826667 17.066667 17.066667v136.533333c0 10.24-6.826667 17.066667-17.066667 17.066667z m-119.466666-34.133334h102.4v-102.4h-102.4v102.4zM716.8 477.866667h-136.533333c-10.24 0-17.066667-6.826667-17.066667-17.066667v-136.533333c0-10.24 6.826667-17.066667 17.066667-17.066667h136.533333c10.24 0 17.066667 6.826667 17.066667 17.066667v136.533333c0 10.24-6.826667 17.066667-17.066667 17.066667z m-119.466667-34.133334h102.4v-102.4h-102.4v102.4zM443.733333 238.933333H307.2c-10.24 0-17.066667-6.826667-17.066667-17.066666v-136.533334c0-10.24 6.826667-17.066667 17.066667-17.066666h136.533333c10.24 0 17.066667 6.826667 17.066667 17.066666v136.533334c0 10.24-6.826667 17.066667-17.066667 17.066666zM324.266667 204.8h102.4V102.4h-102.4v102.4zM716.8 238.933333h-136.533333c-10.24 0-17.066667-6.826667-17.066667-17.066666v-136.533334c0-10.24 6.826667-17.066667 17.066667-17.066666h136.533333c10.24 0 17.066667 6.826667 17.066667 17.066666v136.533334c0 10.24-6.826667 17.066667-17.066667 17.066666z m-119.466667-34.133333h102.4V102.4h-102.4v102.4z" fill="" /><path d="M375.466667 477.866667c-10.24 0-17.066667-6.826667-17.066667-17.066667v-136.533333c0-10.24 6.826667-17.066667 17.066667-17.066667s17.066667 6.826667 17.066666 17.066667v136.533333c0 10.24-6.826667 17.066667-17.066666 17.066667zM307.2 716.8H102.4c-10.24 0-17.066667-6.826667-17.066667-17.066667v-136.533333c0-10.24 6.826667-17.066667 17.066667-17.066667h204.8c10.24 0 17.066667 6.826667 17.066667 17.066667v136.533333c0 10.24-6.826667 17.066667-17.066667 17.066667z m-187.733333-34.133333h170.666666v-102.4h-170.666666v102.4z" fill="" /><path d="M204.8 716.8c-10.24 0-17.066667-6.826667-17.066667-17.066667v-136.533333c0-10.24 6.826667-17.066667 17.066667-17.066667s17.066667 6.826667 17.066667 17.066667v136.533333c0 10.24-6.826667 17.066667-17.066667 17.066667zM921.6 716.8h-204.8c-10.24 0-17.066667-6.826667-17.066667-17.066667v-136.533333c0-10.24 6.826667-17.066667 17.066667-17.066667h204.8c10.24 0 17.066667 6.826667 17.066667 17.066667v136.533333c0 10.24-6.826667 17.066667-17.066667 17.066667z m-187.733333-34.133333h170.666666v-102.4h-170.666666v102.4z" fill="" /><path d="M819.2 716.8c-10.24 0-17.066667-6.826667-17.066667-17.066667v-136.533333c0-10.24 6.826667-17.066667 17.066667-17.066667s17.066667 6.826667 17.066667 17.066667v136.533333c0 10.24-6.826667 17.066667-17.066667 17.066667zM648.533333 477.866667c-10.24 0-17.066667-6.826667-17.066666-17.066667v-136.533333c0-10.24 6.826667-17.066667 17.066666-17.066667s17.066667 6.826667 17.066667 17.066667v136.533333c0 10.24-6.826667 17.066667-17.066667 17.066667zM375.466667 238.933333c-10.24 0-17.066667-6.826667-17.066667-17.066666v-136.533334c0-10.24 6.826667-17.066667 17.066667-17.066666s17.066667 6.826667 17.066666 17.066666v136.533334c0 10.24-6.826667 17.066667-17.066666 17.066666zM648.533333 238.933333c-10.24 0-17.066667-6.826667-17.066666-17.066666v-136.533334c0-10.24 6.826667-17.066667 17.066666-17.066666s17.066667 6.826667 17.066667 17.066666v136.533334c0 10.24-6.826667 17.066667-17.066667 17.066666z" fill="" /></svg>